<?xml version="1.0" standalone="no"?>
<!DOCTYPE svg PUBLIC "-//W3C//DTD SVG 20010904//EN"
 "http://www.w3.org/TR/2001/REC-SVG-20010904/DTD/svg10.dtd">
<svg version="1.0" xmlns="http://www.w3.org/2000/svg"
 width="531.000000pt" height="531.000000pt" viewBox="0 0 531.000000 531.000000"
 preserveAspectRatio="xMidYMid meet">
<metadata>
Created by potrace 1.14, written by Peter Selinger 2001-2017
</metadata>
<g transform="translate(0.000000,531.000000) scale(0.100000,-0.100000)"
fill="#000000" stroke="none">
<path d="M610 5157 c-49 -25 -50 -37 -48 -399 3 -336 3 -338 26 -360 l23 -23
349 0 349 0 23 23 23 23 0 349 0 349 -23 23 c-22 23 -24 23 -360 26 -258 2
-343 -1 -362 -11z m710 -27 c19 -19 20 -33 20 -360 0 -327 -1 -341 -20 -360
-19 -19 -33 -20 -360 -20 -327 0 -341 1 -360 20 -19 19 -20 33 -20 360 0 327
1 341 20 360 19 19 33 20 360 20 327 0 341 -1 360 -20z"/>
<path d="M885 4818 c-20 -51 -46 -114 -56 -140 l-19 -48 36 0 c31 0 37 4 47
30 11 28 15 30 65 30 50 0 54 -2 63 -30 10 -26 16 -30 49 -30 l38 0 -57 140
-56 140 -36 0 -37 0 -37 -92z m104 -70 c1 -5 -12 -8 -29 -8 -34 0 -34 -1 -18
53 l12 40 17 -39 c10 -21 18 -42 18 -46z"/>
<path d="M1450 5157 c-49 -25 -50 -37 -48 -399 3 -336 3 -338 26 -360 l23 -23
349 0 349 0 23 23 23 23 0 349 0 349 -23 23 c-22 23 -24 23 -360 26 -258 2
-343 -1 -362 -11z m705 -32 l25 -24 0 -331 0 -331 -25 -24 -24 -25 -331 0
-331 0 -24 25 -25 24 0 331 0 331 25 24 24 25 331 0 331 0 24 -25z"/>
<path d="M1700 4770 l0 -140 110 0 110 0 0 25 c0 24 -2 25 -75 25 l-75 0 0
115 0 115 -35 0 -35 0 0 -140z"/>
<path d="M2290 5157 c-49 -25 -50 -37 -48 -399 3 -336 3 -338 26 -360 l23 -23
349 0 349 0 23 23 23 23 0 349 0 349 -23 23 c-22 23 -24 23 -360 26 -258 2
-343 -1 -362 -11z m705 -32 l25 -24 0 -331 0 -331 -25 -24 -24 -25 -331 0
-331 0 -24 25 -25 24 0 331 0 331 25 24 24 25 331 0 331 0 24 -25z"/>
<path d="M2530 4770 l0 -140 115 0 115 0 0 25 c0 25 -1 25 -80 25 l-80 0 0 35
0 35 75 0 c73 0 75 1 75 25 0 24 -2 25 -75 25 l-75 0 0 30 0 30 80 0 c79 0 80
0 80 25 l0 25 -115 0 -115 0 0 -140z"/>
<path d="M3130 5157 c-49 -25 -50 -37 -48 -399 3 -336 3 -338 26 -360 l23 -23
349 0 349 0 23 23 23 23 0 349 0 349 -23 23 c-22 23 -24 23 -360 26 -258 2
-343 -1 -362 -11z m705 -32 l25 -24 0 -331 0 -331 -25 -24 -24 -25 -331 0
-331 0 -24 25 -25 24 0 331 0 331 25 24 24 25 331 0 331 0 24 -25z"/>
<path d="M3360 4770 l0 -140 35 0 35 0 0 59 c0 55 2 59 20 54 12 -3 38 -30 58
-59 35 -50 40 -53 79 -54 l43 0 -30 49 c-17 27 -37 55 -45 61 -14 11 -13 14 7
24 36 18 52 61 38 97 -18 43 -37 49 -144 49 l-96 0 0 -140z m158 81 c8 -5 12
-17 10 -27 -2 -15 -14 -20 -51 -22 -46 -3 -47 -3 -47 27 0 29 2 31 38 31 20 0
43 -4 50 -9z"/>
<path d="M3970 5157 c-49 -25 -50 -37 -48 -399 3 -336 3 -338 26 -360 l23 -23
349 0 349 0 23 23 23 23 0 349 0 349 -23 23 c-22 23 -24 23 -360 26 -258 2
-343 -1 -362 -11z m705 -32 l25 -24 0 -331 0 -331 -25 -24 -24 -25 -331 0
-331 0 -24 25 -25 24 0 331 0 331 25 24 24 25 331 0 331 0 24 -25z"/>
<path d="M4200 4885 c0 -22 4 -25 40 -25 l40 0 0 -115 0 -115 40 0 40 0 0 115
0 115 40 0 c36 0 40 3 40 25 l0 25 -120 0 -120 0 0 -25z"/>
<path d="M610 4317 c-49 -25 -50 -37 -48 -399 3 -336 3 -338 26 -360 l23 -23
349 0 349 0 23 23 23 23 0 349 0 349 -23 23 c-22 23 -24 23 -360 26 -258 2
-343 -1 -362 -11z m710 -27 c19 -19 20 -33 20 -360 0 -327 -1 -341 -20 -360
-19 -19 -33 -20 -360 -20 -327 0 -341 1 -360 20 -19 19 -20 33 -20 360 0 327
1 341 20 360 19 19 33 20 360 20 327 0 341 -1 360 -20z"/>
<path d="M885 3978 c-20 -51 -46 -114 -56 -140 l-19 -48 36 0 c31 0 37 4 47
30 11 28 15 30 65 30 50 0 54 -2 63 -30 10 -26 16 -30 49 -30 l38 0 -57 140
-56 140 -36 0 -37 0 -37 -92z m104 -70 c1 -5 -12 -8 -29 -8 -34 0 -34 -1 -18
53 l12 40 17 -39 c10 -21 18 -42 18 -46z"/>
<path d="M1450 4317 c-49 -25 -50 -37 -48 -399 3 -336 3 -338 26 -360 l23 -23
349 0 349 0 23 23 23 23 0 349 0 349 -23 23 c-22 23 -24 23 -360 26 -258 2
-343 -1 -362 -11z m705 -32 l25 -24 0 -331 0 -331 -25 -24 -24 -25 -331 0
-331 0 -24 25 -25 24 0 331 0 331 25 24 24 25 331 0 331 0 24 -25z"/>
<path d="M1680 4045 c0 -22 4 -25 40 -25 l40 0 0 -115 0 -115 40 0 40 0 0 115
0 115 40 0 c36 0 40 3 40 25 l0 25 -120 0 -120 0 0 -25z"/>
<path d="M2290 4317 c-49 -25 -50 -37 -48 -399 3 -336 3 -338 26 -360 l23 -23
349 0 349 0 23 23 23 23 0 349 0 349 -23 23 c-22 23 -24 23 -360 26 -258 2
-343 -1 -362 -11z m714 -23 c14 -13 16 -60 16 -364 0 -304 -2 -351 -16 -364
-13 -14 -60 -16 -364 -16 -304 0 -351 2 -364 16 -14 13 -16 60 -16 364 0 304
2 351 16 364 13 14 60 16 364 16 304 0 351 -2 364 -16z"/>
<path d="M2571 4053 c-93 -46 -89 -210 6 -249 103 -44 203 18 203 126 0 109
-108 173 -209 123z m124 -58 c70 -69 -10 -191 -95 -145 -23 12 -44 73 -36 106
16 63 86 84 131 39z"/>
<path d="M3130 4317 c-49 -25 -50 -37 -48 -399 3 -336 3 -338 26 -360 l23 -23
349 0 349 0 23 23 23 23 0 349 0 349 -23 23 c-22 23 -24 23 -360 26 -258 2
-343 -1 -362 -11z m705 -32 l25 -24 0 -331 0 -331 -25 -24 -24 -25 -331 0
-331 0 -24 25 -25 24 0 331 0 331 25 24 24 25 331 0 331 0 24 -25z"/>
<path d="M3360 3930 l0 -140 35 0 34 0 3 73 3 72 45 -72 c43 -69 47 -73 83
-73 l37 0 0 140 0 140 -35 0 -34 0 -3 -76 -3 -77 -48 77 c-45 71 -51 76 -83
76 l-34 0 0 -140z"/>
<path d="M3970 4317 c-49 -25 -50 -37 -48 -399 3 -336 3 -338 26 -360 l23 -23
349 0 349 0 23 23 23 23 0 349 0 349 -23 23 c-22 23 -24 23 -360 26 -258 2
-343 -1 -362 -11z m705 -32 l25 -24 0 -331 0 -331 -25 -24 -24 -25 -331 0
-331 0 -24 25 -25 24 0 331 0 331 25 24 24 25 331 0 331 0 24 -25z"/>
<path d="M4210 3930 l0 -140 115 0 115 0 0 25 c0 25 -1 25 -80 25 l-80 0 0 35
0 35 75 0 c73 0 75 1 75 25 0 24 -2 25 -75 25 l-75 0 0 30 0 30 80 0 c79 0 80
0 80 25 l0 25 -115 0 -115 0 0 -140z"/>
<path d="M610 3477 c-49 -25 -50 -37 -48 -399 3 -336 3 -338 26 -360 l23 -23
349 0 349 0 23 23 23 23 0 349 0 349 -23 23 c-22 23 -24 23 -360 26 -258 2
-343 -1 -362 -11z m710 -27 c19 -19 20 -33 20 -360 0 -327 -1 -341 -20 -360
-19 -19 -33 -20 -360 -20 -327 0 -341 1 -360 20 -19 19 -20 33 -20 360 0 327
1 341 20 360 19 19 33 20 360 20 327 0 341 -1 360 -20z"/>
<path d="M885 3138 c-20 -51 -46 -114 -56 -140 l-19 -48 36 0 c31 0 37 4 47
30 11 28 15 30 65 30 50 0 54 -2 63 -30 10 -26 16 -30 49 -30 l38 0 -57 140
-56 140 -36 0 -37 0 -37 -92z m104 -70 c1 -5 -12 -8 -29 -8 -34 0 -34 -1 -18
53 l12 40 17 -39 c10 -21 18 -42 18 -46z"/>
<path d="M1450 3477 c-49 -25 -50 -37 -48 -399 3 -336 3 -338 26 -360 l23 -23
349 0 349 0 23 23 23 23 0 349 0 349 -23 23 c-22 23 -24 23 -360 26 -258 2
-343 -1 -362 -11z m710 -27 c19 -19 20 -33 20 -360 0 -327 -1 -341 -20 -360
-19 -19 -33 -20 -360 -20 -327 0 -341 1 -360 20 -19 19 -20 33 -20 360 0 327
1 341 20 360 19 19 33 20 360 20 327 0 341 -1 360 -20z"/>
<path d="M1722 3210 c-81 -50 -81 -190 0 -240 44 -27 125 -27 178 0 40 20 40
21 40 80 l0 60 -70 0 c-68 0 -70 -1 -70 -25 0 -22 4 -25 35 -25 49 0 50 -34 1
-50 -62 -20 -106 14 -106 82 0 72 66 109 122 68 20 -15 37 -20 54 -16 32 9 30
29 -7 60 -40 34 -126 37 -177 6z"/>
<path d="M2290 3477 c-49 -25 -50 -37 -48 -399 3 -336 3 -338 26 -360 l23 -23
349 0 349 0 23 23 23 23 0 349 0 349 -23 23 c-22 23 -24 23 -360 26 -258 2
-343 -1 -362 -11z m710 -27 c19 -19 20 -33 20 -360 0 -327 -1 -341 -20 -360
-19 -19 -33 -20 -360 -20 -327 0 -341 1 -360 20 -19 19 -20 33 -20 360 0 327
1 341 20 360 19 19 33 20 360 20 327 0 341 -1 360 -20z"/>
<path d="M2610 3090 l0 -140 30 0 30 0 0 140 0 140 -30 0 -30 0 0 -140z"/>
<path d="M3130 3477 c-49 -25 -50 -37 -48 -399 3 -336 3 -338 26 -360 l23 -23
349 0 349 0 23 23 23 23 0 349 0 349 -23 23 c-22 23 -24 23 -360 26 -258 2
-343 -1 -362 -11z m705 -32 l25 -24 0 -331 0 -331 -25 -24 -24 -25 -331 0
-331 0 -24 25 -25 24 0 331 0 331 25 24 24 25 331 0 331 0 24 -25z"/>
<path d="M3380 3090 l0 -140 110 0 110 0 0 25 c0 24 -2 25 -75 25 l-75 0 0
115 0 115 -35 0 -35 0 0 -140z"/>
<path d="M3970 3477 c-49 -25 -50 -37 -48 -399 3 -336 3 -338 26 -360 l23 -23
349 0 349 0 23 23 23 23 0 349 0 349 -23 23 c-22 23 -24 23 -360 26 -258 2
-343 -1 -362 -11z m705 -32 l25 -24 0 -331 0 -331 -25 -24 -24 -25 -331 0
-331 0 -24 25 -25 24 0 331 0 331 25 24 24 25 331 0 331 0 24 -25z"/>
<path d="M4210 3090 l0 -140 115 0 115 0 0 25 c0 25 -1 25 -80 25 l-80 0 0 35
0 35 75 0 c73 0 75 1 75 25 0 24 -2 25 -75 25 l-75 0 0 30 0 30 80 0 c79 0 80
0 80 25 l0 25 -115 0 -115 0 0 -140z"/>
<path d="M610 2637 c-49 -25 -50 -37 -48 -399 3 -336 3 -338 26 -360 l23 -23
349 0 349 0 23 23 23 23 0 349 0 349 -23 23 c-22 23 -24 23 -360 26 -258 2
-343 -1 -362 -11z m710 -27 c19 -19 20 -33 20 -360 0 -327 -1 -341 -20 -360
-19 -19 -33 -20 -360 -20 -327 0 -341 1 -360 20 -19 19 -20 33 -20 360 0 327
1 341 20 360 19 19 33 20 360 20 327 0 341 -1 360 -20z"/>
<path d="M885 2298 c-20 -51 -46 -114 -56 -140 l-19 -48 36 0 c31 0 37 4 47
30 11 28 15 30 65 30 50 0 54 -2 63 -30 10 -26 16 -30 49 -30 l38 0 -57 140
-56 140 -36 0 -37 0 -37 -92z m104 -70 c1 -5 -12 -8 -29 -8 -34 0 -34 -1 -18
53 l12 40 17 -39 c10 -21 18 -42 18 -46z"/>
<path d="M1450 2637 c-49 -25 -50 -37 -48 -399 3 -336 3 -338 26 -360 l23 -23
349 0 349 0 23 23 23 23 0 349 0 349 -23 23 c-22 23 -24 23 -360 26 -258 2
-343 -1 -362 -11z m710 -27 c19 -19 20 -33 20 -360 0 -327 -1 -341 -20 -360
-19 -19 -33 -20 -360 -20 -327 0 -341 1 -360 20 -19 19 -20 33 -20 360 0 327
1 341 20 360 19 19 33 20 360 20 327 0 341 -1 360 -20z"/>
<path d="M1722 2370 c-81 -50 -81 -190 0 -240 44 -27 125 -27 178 0 40 20 40
21 40 80 l0 60 -70 0 c-68 0 -70 -1 -70 -25 0 -22 4 -25 35 -25 49 0 50 -34 1
-50 -62 -20 -106 14 -106 82 0 72 66 109 122 68 20 -15 37 -20 54 -16 32 9 30
29 -7 60 -40 34 -126 37 -177 6z"/>
<path d="M2290 2637 c-49 -25 -50 -37 -48 -399 3 -336 3 -338 26 -360 l23 -23
349 0 349 0 23 23 23 23 0 349 0 349 -23 23 c-22 23 -24 23 -360 26 -258 2
-343 -1 -362 -11z m710 -27 c19 -19 20 -33 20 -360 0 -327 -1 -341 -20 -360
-19 -19 -33 -20 -360 -20 -327 0 -341 1 -360 20 -19 19 -20 33 -20 360 0 327
1 341 20 360 19 19 33 20 360 20 327 0 341 -1 360 -20z"/>
<path d="M2610 2250 l0 -140 30 0 30 0 0 140 0 140 -30 0 -30 0 0 -140z"/>
<path d="M3130 2637 c-49 -25 -50 -37 -48 -399 3 -336 3 -338 26 -360 l23 -23
349 0 349 0 23 23 23 23 0 349 0 349 -23 23 c-22 23 -24 23 -360 26 -258 2
-343 -1 -362 -11z m710 -27 c19 -19 20 -33 20 -360 0 -327 -1 -341 -20 -360
-19 -19 -33 -20 -360 -20 -327 0 -341 1 -360 20 -19 19 -20 33 -20 360 0 327
1 341 20 360 19 19 33 20 360 20 327 0 341 -1 360 -20z"/>
<path d="M3382 2356 c-36 -34 -37 -36 -37 -106 0 -70 1 -72 37 -106 34 -30 44
-34 93 -34 101 0 145 44 145 142 -1 94 -46 138 -143 138 -51 0 -61 -4 -95 -34z
m131 -25 c56 -21 56 -134 1 -160 -37 -16 -52 -14 -79 14 -36 35 -35 105 1 134
30 23 42 25 77 12z"/>
<path d="M3970 2637 c-49 -25 -50 -37 -48 -399 3 -336 3 -338 26 -360 l23 -23
349 0 349 0 23 23 23 23 0 349 0 349 -23 23 c-22 23 -24 23 -360 26 -258 2
-343 -1 -362 -11z m710 -27 c19 -19 20 -33 20 -360 0 -327 -1 -341 -20 -360
-19 -19 -33 -20 -360 -20 -327 0 -341 1 -360 20 -19 19 -20 33 -20 360 0 327
1 341 20 360 19 19 33 20 360 20 327 0 341 -1 360 -20z"/>
<path d="M4235 2365 c-54 -53 -22 -112 76 -135 56 -14 73 -35 44 -56 -28 -21
-53 -17 -79 11 -30 32 -76 34 -76 4 0 -11 13 -34 29 -50 26 -26 36 -29 91 -29
55 0 65 3 91 29 16 17 29 40 29 54 0 35 -35 74 -73 82 -17 4 -47 14 -66 21
-28 12 -31 16 -21 29 18 21 57 19 77 -5 20 -23 73 -27 73 -6 0 48 -44 76 -120
76 -41 0 -56 -5 -75 -25z"/>
<path d="M610 1797 c-49 -25 -50 -37 -48 -399 3 -336 3 -338 26 -360 l23 -23
349 0 349 0 23 23 23 23 0 349 0 349 -23 23 c-22 23 -24 23 -360 26 -258 2
-343 -1 -362 -11z m714 -23 c14 -13 16 -60 16 -364 0 -304 -2 -351 -16 -364
-13 -14 -60 -16 -364 -16 -304 0 -351 2 -364 16 -14 13 -16 60 -16 364 0 304
2 351 16 364 13 14 60 16 364 16 304 0 351 -2 364 -16z"/>
<path d="M1450 1797 c-49 -25 -50 -37 -48 -399 3 -336 3 -338 26 -360 l23 -23
349 0 349 0 23 23 23 23 0 349 0 349 -23 23 c-22 23 -24 23 -360 26 -258 2
-343 -1 -362 -11z m714 -23 c14 -13 16 -60 16 -364 0 -304 -2 -351 -16 -364
-13 -14 -60 -16 -364 -16 -304 0 -351 2 -364 16 -14 13 -16 60 -16 364 0 304
2 351 16 364 13 14 60 16 364 16 304 0 351 -2 364 -16z"/>
<path d="M2290 1797 c-49 -25 -50 -37 -48 -399 3 -336 3 -338 26 -360 l23 -23
349 0 349 0 23 23 23 23 0 349 0 349 -23 23 c-22 23 -24 23 -360 26 -258 2
-343 -1 -362 -11z m714 -23 c14 -13 16 -60 16 -364 0 -304 -2 -351 -16 -364
-13 -14 -60 -16 -364 -16 -304 0 -351 2 -364 16 -14 13 -16 60 -16 364 0 304
2 351 16 364 13 14 60 16 364 16 304 0 351 -2 364 -16z"/>
<path d="M3130 1797 c-49 -25 -50 -37 -48 -399 3 -336 3 -338 26 -360 l23 -23
349 0 349 0 23 23 23 23 0 349 0 349 -23 23 c-22 23 -24 23 -360 26 -258 2
-343 -1 -362 -11z m714 -23 c14 -13 16 -60 16 -364 0 -304 -2 -351 -16 -364
-13 -14 -60 -16 -364 -16 -304 0 -351 2 -364 16 -14 13 -16 60 -16 364 0 304
2 351 16 364 13 14 60 16 364 16 304 0 351 -2 364 -16z"/>
<path d="M3970 1797 c-49 -25 -50 -37 -48 -399 3 -336 3 -338 26 -360 l23 -23
349 0 349 0 23 23 23 23 0 349 0 349 -23 23 c-22 23 -24 23 -360 26 -258 2
-343 -1 -362 -11z m714 -23 c14 -13 16 -60 16 -364 0 -304 -2 -351 -16 -364
-13 -14 -60 -16 -364 -16 -304 0 -351 2 -364 16 -14 13 -16 60 -16 364 0 304
2 351 16 364 13 14 60 16 364 16 304 0 351 -2 364 -16z"/>
<path d="M610 957 c-49 -25 -50 -37 -48 -399 3 -336 3 -338 26 -360 l23 -23
349 0 349 0 23 23 23 23 0 349 0 349 -23 23 c-22 23 -24 23 -360 26 -258 2
-343 -1 -362 -11z m714 -23 c14 -13 16 -60 16 -364 0 -304 -2 -351 -16 -364
-13 -14 -60 -16 -364 -16 -304 0 -351 2 -364 16 -14 13 -16 60 -16 364 0 304
2 351 16 364 13 14 60 16 364 16 304 0 351 -2 364 -16z"/>
<path d="M1450 957 c-49 -25 -50 -37 -48 -399 3 -336 3 -338 26 -360 l23 -23
349 0 349 0 23 23 23 23 0 349 0 349 -23 23 c-22 23 -24 23 -360 26 -258 2
-343 -1 -362 -11z m714 -23 c14 -13 16 -60 16 -364 0 -304 -2 -351 -16 -364
-13 -14 -60 -16 -364 -16 -304 0 -351 2 -364 16 -14 13 -16 60 -16 364 0 304
2 351 16 364 13 14 60 16 364 16 304 0 351 -2 364 -16z"/>
<path d="M2290 957 c-49 -25 -50 -37 -48 -399 3 -336 3 -338 26 -360 l23 -23
349 0 349 0 23 23 23 23 0 349 0 349 -23 23 c-22 23 -24 23 -360 26 -258 2
-343 -1 -362 -11z m714 -23 c14 -13 16 -60 16 -364 0 -304 -2 -351 -16 -364
-13 -14 -60 -16 -364 -16 -304 0 -351 2 -364 16 -14 13 -16 60 -16 364 0 304
2 351 16 364 13 14 60 16 364 16 304 0 351 -2 364 -16z"/>
<path d="M3130 957 c-49 -25 -50 -37 -48 -399 3 -336 3 -338 26 -360 l23 -23
349 0 349 0 23 23 23 23 0 349 0 349 -23 23 c-22 23 -24 23 -360 26 -258 2
-343 -1 -362 -11z m714 -23 c14 -13 16 -60 16 -364 0 -304 -2 -351 -16 -364
-13 -14 -60 -16 -364 -16 -304 0 -351 2 -364 16 -14 13 -16 60 -16 364 0 304
2 351 16 364 13 14 60 16 364 16 304 0 351 -2 364 -16z"/>
<path d="M3970 957 c-49 -25 -50 -37 -48 -399 3 -336 3 -338 26 -360 l23 -23
349 0 349 0 23 23 23 23 0 349 0 349 -23 23 c-22 23 -24 23 -360 26 -258 2
-343 -1 -362 -11z m714 -23 c14 -13 16 -60 16 -364 0 -304 -2 -351 -16 -364
-13 -14 -60 -16 -364 -16 -304 0 -351 2 -364 16 -14 13 -16 60 -16 364 0 304
2 351 16 364 13 14 60 16 364 16 304 0 351 -2 364 -16z"/>
</g>
</svg>
